<svg width="30" height="30" viewBox="0 0 30 30" fill="none" xmlns="http://www.w3.org/2000/svg">
<path d="M14.2505 0.00436588C11.8427 0.033432 6.66615 0.429106 3.77079 3.08537C1.61709 5.21938 0.865121 8.37446 0.776985 12.2759C0.703851 16.1632 0.615715 23.4635 7.65252 25.4513V28.4788C7.65252 28.4788 7.60845 29.6902 8.40918 29.9387C9.39555 30.2509 9.95718 29.3189 10.8948 28.3175L12.6434 26.3401C17.4581 26.7405 21.1457 25.8179 21.5705 25.681C22.5475 25.3687 28.0503 24.6655 28.9495 17.3643C29.8721 9.82402 28.5004 5.07312 26.0242 2.9241H26.0092C25.2619 2.23589 22.2587 0.0474962 15.5491 0.0231182C15.5491 0.0231182 15.0512 -0.00969836 14.2505 0.00436588ZM14.333 2.12432C15.0166 2.11963 15.4319 2.14869 15.4319 2.14869C21.1111 2.16369 23.8217 3.87297 24.4612 4.44866C26.5464 6.23576 27.6209 10.5188 26.8343 16.8139C26.087 22.9178 21.6239 23.3041 20.7979 23.5676C20.4463 23.6801 17.1984 24.4808 13.1066 24.2174C13.1066 24.2174 10.0594 27.8947 9.10676 28.8417C8.95581 29.0076 8.77954 29.0564 8.66702 29.032C8.50575 28.9926 8.457 28.7929 8.46637 28.5191L8.49544 23.4945C2.52751 21.8442 2.87912 15.6175 2.94288 12.365C3.01601 9.11236 3.6264 6.45141 5.4435 4.64931C7.88974 2.43748 12.2853 2.13932 14.3312 2.12432H14.333ZM14.7831 5.37597C14.5778 5.37128 14.4071 5.54192 14.4071 5.74726C14.4071 5.95729 14.5778 6.12325 14.7831 6.12325C16.663 6.08949 18.4754 6.80208 19.8228 8.11099C21.1851 9.43397 21.849 11.2117 21.8743 13.536C21.8743 13.7414 22.0402 13.912 22.2503 13.912V13.897C22.4556 13.897 22.6262 13.7311 22.6262 13.5257C22.7191 11.3139 21.8987 9.16487 20.36 7.5728C18.8758 6.12231 16.9949 5.37503 14.7831 5.37503V5.37597ZM9.84092 6.23576C9.57745 6.19638 9.30366 6.25076 9.07395 6.38671H9.05426C8.54607 6.68488 8.07257 7.06086 7.62345 7.56342C7.28122 7.9591 7.09558 8.35946 7.04682 8.74482C7.01775 8.97453 7.03744 9.20425 7.10589 9.42365L7.13027 9.43865C7.51563 10.5713 8.01913 11.6608 8.6342 12.6866C9.42555 14.1267 10.4016 15.46 11.5352 16.6517L11.5689 16.7005L11.6224 16.7399L11.6561 16.7792L11.6955 16.813C12.8919 17.9513 14.2252 18.9273 15.671 19.728C17.3212 20.6263 18.3226 21.051 18.9236 21.2273V21.2367C19.0999 21.2901 19.2602 21.3145 19.4215 21.3145C19.9343 21.2751 20.4182 21.0707 20.7988 20.7238C21.2873 20.2841 21.6727 19.8012 21.9615 19.2883V19.2789C22.2493 18.737 22.1518 18.2241 21.7364 17.8772C20.9067 17.1496 20.0028 16.5045 19.0502 15.9485C18.4107 15.6016 17.761 15.8116 17.4975 16.1632L16.9359 16.8711C16.648 17.2227 16.1248 17.174 16.1248 17.174L16.1098 17.1834C12.2084 16.1867 11.1676 12.2365 11.1676 12.2365C11.1676 12.2365 11.1189 11.6992 11.4799 11.4255L12.1831 10.8591C12.5197 10.5854 12.7541 9.93653 12.3931 9.29614C11.8408 8.33883 11.1967 7.4406 10.4691 6.60987C10.3125 6.41484 10.0884 6.28264 9.83904 6.23388L9.84092 6.23576ZM15.4319 7.34965C14.934 7.34965 14.934 8.10161 15.4366 8.10161C16.6864 8.1213 17.8782 8.63887 18.7473 9.5371C19.5387 10.411 19.9484 11.5736 19.8706 12.7503C19.8753 12.9557 20.0412 13.1216 20.2466 13.1216L20.2616 13.1413C20.4669 13.1413 20.6376 12.9707 20.6376 12.7653C20.6713 11.2754 20.2081 10.0256 19.2996 9.02423C18.3863 8.02285 17.1121 7.46122 15.4854 7.34965C15.4657 7.34965 15.4516 7.34965 15.4319 7.34965ZM16.0479 9.37115C15.5351 9.35614 15.5154 10.1231 16.0236 10.1381C17.2593 10.2019 17.8594 10.8263 17.9382 12.1109C17.9429 12.3162 18.1088 12.4775 18.3095 12.4775H18.3245C18.5345 12.4681 18.7004 12.2871 18.6854 12.0771C18.5973 10.4025 17.6841 9.45928 16.0629 9.37208C16.0582 9.37208 16.0536 9.37208 16.0479 9.37208V9.37115Z" fill="white"/>
</svg>
